<mxfile host="app.diagrams.net" modified="2023-07-12T14:42:16.365Z" agent="Mozilla/5.0 (Macintosh; Intel Mac OS X 10_15_7) AppleWebKit/537.36 (KHTML, like Gecko) Chrome/113.0.0.0 Safari/537.36" etag="jCpFNyiq5bZDuWDw6zaN" version="21.6.1" type="github">
  <diagram name="Page-1" id="c7558073-3199-34d8-9f00-42111426c3f3">
    <mxGraphModel dx="2068" dy="653" grid="1" gridSize="10" guides="1" tooltips="1" connect="1" arrows="1" fold="1" page="1" pageScale="1" pageWidth="826" pageHeight="1169" background="none" math="0" shadow="0">
      <root>
        <mxCell id="0" />
        <mxCell id="1" parent="0" />
        <mxCell id="zrYIScCdd_bgvvqXHvuQ-96" style="edgeStyle=orthogonalEdgeStyle;rounded=0;orthogonalLoop=1;jettySize=auto;html=1;exitX=0.5;exitY=1;exitDx=0;exitDy=0;fillColor=#d80073;strokeColor=#A50040;entryX=0.596;entryY=0.011;entryDx=0;entryDy=0;entryPerimeter=0;" edge="1" parent="1" source="zrYIScCdd_bgvvqXHvuQ-97" target="zrYIScCdd_bgvvqXHvuQ-107">
          <mxGeometry relative="1" as="geometry">
            <mxPoint x="379" y="114" as="sourcePoint" />
            <mxPoint x="379" y="364" as="targetPoint" />
            <Array as="points">
              <mxPoint x="418" y="263" />
              <mxPoint x="500" y="263" />
            </Array>
          </mxGeometry>
        </mxCell>
        <mxCell id="zrYIScCdd_bgvvqXHvuQ-97" value="CISCO JASPER" style="rounded=1;whiteSpace=wrap;html=1;fillColor=#d0cee2;strokeColor=#56517e;fontStyle=1" vertex="1" parent="1">
          <mxGeometry x="357.97" y="50" width="120" height="50" as="geometry" />
        </mxCell>
        <mxCell id="zrYIScCdd_bgvvqXHvuQ-98" style="edgeStyle=orthogonalEdgeStyle;rounded=0;orthogonalLoop=1;jettySize=auto;html=1;exitX=1;exitY=0.5;exitDx=0;exitDy=0;fontSize=12;fontColor=#990099;fillColor=#6a00ff;strokeColor=#3700CC;endSize=12;startSize=12;" edge="1" parent="1" source="zrYIScCdd_bgvvqXHvuQ-107" target="zrYIScCdd_bgvvqXHvuQ-97">
          <mxGeometry relative="1" as="geometry">
            <Array as="points">
              <mxPoint x="580" y="470" />
              <mxPoint x="580" y="90" />
            </Array>
            <mxPoint x="497.97" y="90" as="targetPoint" />
            <mxPoint x="585.97" y="471" as="sourcePoint" />
          </mxGeometry>
        </mxCell>
        <mxCell id="zrYIScCdd_bgvvqXHvuQ-99" style="edgeStyle=orthogonalEdgeStyle;rounded=0;orthogonalLoop=1;jettySize=auto;html=1;entryX=0;entryY=0.5;entryDx=0;entryDy=0;fillColor=#d80073;strokeColor=#A50040;exitX=0.5;exitY=1;exitDx=0;exitDy=0;" edge="1" parent="1" source="zrYIScCdd_bgvvqXHvuQ-137" target="zrYIScCdd_bgvvqXHvuQ-107">
          <mxGeometry relative="1" as="geometry">
            <mxPoint x="210" y="320" as="sourcePoint" />
          </mxGeometry>
        </mxCell>
        <mxCell id="zrYIScCdd_bgvvqXHvuQ-100" style="edgeStyle=orthogonalEdgeStyle;rounded=0;orthogonalLoop=1;jettySize=auto;html=1;entryX=0;entryY=0.5;entryDx=0;entryDy=0;exitX=0.5;exitY=1;exitDx=0;exitDy=0;fillColor=#6a00ff;strokeColor=#3700CC;" edge="1" parent="1" source="zrYIScCdd_bgvvqXHvuQ-102" target="zrYIScCdd_bgvvqXHvuQ-137">
          <mxGeometry relative="1" as="geometry" />
        </mxCell>
        <mxCell id="zrYIScCdd_bgvvqXHvuQ-101" style="edgeStyle=orthogonalEdgeStyle;rounded=0;orthogonalLoop=1;jettySize=auto;html=1;exitX=0.25;exitY=1;exitDx=0;exitDy=0;entryX=0;entryY=0.75;entryDx=0;entryDy=0;fillColor=#a20025;strokeColor=#6F0000;" edge="1" parent="1" source="zrYIScCdd_bgvvqXHvuQ-102" target="zrYIScCdd_bgvvqXHvuQ-137">
          <mxGeometry relative="1" as="geometry" />
        </mxCell>
        <mxCell id="zrYIScCdd_bgvvqXHvuQ-102" value="UAML AWS" style="rounded=1;whiteSpace=wrap;html=1;fillColor=#d0cee2;strokeColor=#56517e;fontStyle=1" vertex="1" parent="1">
          <mxGeometry x="156" y="254" width="120" height="60" as="geometry" />
        </mxCell>
        <mxCell id="zrYIScCdd_bgvvqXHvuQ-103" style="edgeStyle=orthogonalEdgeStyle;rounded=0;orthogonalLoop=1;jettySize=auto;html=1;exitX=0.5;exitY=1;exitDx=0;exitDy=0;entryX=0.5;entryY=0;entryDx=0;entryDy=0;fillColor=#d80073;strokeColor=#A50040;endSize=12;startSize=12;" edge="1" parent="1" source="zrYIScCdd_bgvvqXHvuQ-107" target="zrYIScCdd_bgvvqXHvuQ-109">
          <mxGeometry relative="1" as="geometry">
            <Array as="points">
              <mxPoint x="480" y="550" />
              <mxPoint x="216" y="550" />
            </Array>
          </mxGeometry>
        </mxCell>
        <mxCell id="zrYIScCdd_bgvvqXHvuQ-104" style="edgeStyle=orthogonalEdgeStyle;rounded=0;orthogonalLoop=1;jettySize=auto;html=1;exitX=0.5;exitY=0;exitDx=0;exitDy=0;entryX=1;entryY=0.5;entryDx=0;entryDy=0;fillColor=#d80073;strokeColor=#A50040;" edge="1" parent="1" source="zrYIScCdd_bgvvqXHvuQ-137" target="zrYIScCdd_bgvvqXHvuQ-102">
          <mxGeometry relative="1" as="geometry" />
        </mxCell>
        <mxCell id="zrYIScCdd_bgvvqXHvuQ-105" style="edgeStyle=orthogonalEdgeStyle;rounded=0;orthogonalLoop=1;jettySize=auto;html=1;exitX=0.5;exitY=0;exitDx=0;exitDy=0;entryX=1;entryY=0.5;entryDx=0;entryDy=0;fillColor=#d80073;strokeColor=#A50040;" edge="1" parent="1" source="zrYIScCdd_bgvvqXHvuQ-107" target="zrYIScCdd_bgvvqXHvuQ-137">
          <mxGeometry relative="1" as="geometry" />
        </mxCell>
        <mxCell id="zrYIScCdd_bgvvqXHvuQ-106" style="edgeStyle=orthogonalEdgeStyle;rounded=0;orthogonalLoop=1;jettySize=auto;html=1;exitX=0.25;exitY=0;exitDx=0;exitDy=0;entryX=1;entryY=0.75;entryDx=0;entryDy=0;fillColor=#6a00ff;strokeColor=#3700CC;" edge="1" parent="1" source="zrYIScCdd_bgvvqXHvuQ-107" target="zrYIScCdd_bgvvqXHvuQ-137">
          <mxGeometry relative="1" as="geometry" />
        </mxCell>
        <mxCell id="zrYIScCdd_bgvvqXHvuQ-107" value="API Gateway (SDF)" style="rounded=1;whiteSpace=wrap;html=1;fillColor=#fad7ac;strokeColor=#b46504;" vertex="1" parent="1">
          <mxGeometry x="428" y="440" width="120" height="60" as="geometry" />
        </mxCell>
        <mxCell id="zrYIScCdd_bgvvqXHvuQ-108" style="edgeStyle=orthogonalEdgeStyle;rounded=0;orthogonalLoop=1;jettySize=auto;html=1;exitX=1;exitY=0.5;exitDx=0;exitDy=0;entryX=0.75;entryY=1;entryDx=0;entryDy=0;fontSize=11;fontColor=#000000;startSize=12;endSize=12;fillColor=#6a00ff;strokeColor=#3700CC;" edge="1" parent="1" source="zrYIScCdd_bgvvqXHvuQ-109" target="zrYIScCdd_bgvvqXHvuQ-107">
          <mxGeometry relative="1" as="geometry" />
        </mxCell>
        <mxCell id="zrYIScCdd_bgvvqXHvuQ-109" value="Slice Orchestrator CSMF" style="rounded=1;whiteSpace=wrap;html=1;fillColor=#d0cee2;strokeColor=#56517e;fontStyle=1" vertex="1" parent="1">
          <mxGeometry x="156" y="590" width="120" height="60" as="geometry" />
        </mxCell>
        <mxCell id="zrYIScCdd_bgvvqXHvuQ-110" value="NSMF" style="rounded=1;whiteSpace=wrap;html=1;fillColor=#d0cee2;strokeColor=#56517e;" vertex="1" parent="1">
          <mxGeometry x="156" y="650" width="120" height="60" as="geometry" />
        </mxCell>
        <mxCell id="zrYIScCdd_bgvvqXHvuQ-111" value="&lt;font style=&quot;font-size: 17px;&quot;&gt;Slice Ordering Flow (Dynamic Slice)&amp;nbsp;&lt;/font&gt;" style="text;html=1;strokeColor=none;fillColor=none;align=center;verticalAlign=middle;whiteSpace=wrap;rounded=0;labelBackgroundColor=#E6FFCC;fontStyle=1" vertex="1" parent="1">
          <mxGeometry x="11" y="10" width="500" height="30" as="geometry" />
        </mxCell>
        <mxCell id="zrYIScCdd_bgvvqXHvuQ-112" value="1" style="ellipse;whiteSpace=wrap;html=1;labelBackgroundColor=#E6FFCC;fontSize=17;" vertex="1" parent="1">
          <mxGeometry x="425" y="134" width="38" height="30" as="geometry" />
        </mxCell>
        <mxCell id="zrYIScCdd_bgvvqXHvuQ-113" value="2" style="ellipse;whiteSpace=wrap;html=1;labelBackgroundColor=#E6FFCC;fontSize=17;" vertex="1" parent="1">
          <mxGeometry x="460" y="344" width="30" height="30" as="geometry" />
        </mxCell>
        <mxCell id="zrYIScCdd_bgvvqXHvuQ-114" value="&lt;font style=&quot;font-size: 12px;&quot;&gt;Internet&lt;/font&gt;" style="text;html=1;strokeColor=none;fillColor=none;align=center;verticalAlign=middle;whiteSpace=wrap;rounded=0;labelBackgroundColor=#E6FFCC;fontSize=17;fontColor=#990099;" vertex="1" parent="1">
          <mxGeometry y="60" width="60" height="30" as="geometry" />
        </mxCell>
        <mxCell id="zrYIScCdd_bgvvqXHvuQ-115" value="&lt;font style=&quot;font-size: 12px;&quot;&gt;DMZ / API GW&lt;/font&gt;" style="text;html=1;strokeColor=none;fillColor=none;align=center;verticalAlign=middle;whiteSpace=wrap;rounded=0;labelBackgroundColor=#E6FFCC;fontSize=17;fontColor=#990099;" vertex="1" parent="1">
          <mxGeometry y="334" width="113" height="30" as="geometry" />
        </mxCell>
        <mxCell id="zrYIScCdd_bgvvqXHvuQ-116" value="5" style="ellipse;whiteSpace=wrap;html=1;labelBackgroundColor=#E6FFCC;fontSize=17;" vertex="1" parent="1">
          <mxGeometry x="320" y="420" width="30" height="30" as="geometry" />
        </mxCell>
        <mxCell id="zrYIScCdd_bgvvqXHvuQ-117" value="&lt;font style=&quot;font-size: 12px;&quot;&gt;Engineering&lt;/font&gt;" style="text;html=1;strokeColor=none;fillColor=none;align=center;verticalAlign=middle;whiteSpace=wrap;rounded=0;labelBackgroundColor=#E6FFCC;fontSize=17;fontColor=#990099;" vertex="1" parent="1">
          <mxGeometry x="-20" y="535" width="113" height="30" as="geometry" />
        </mxCell>
        <mxCell id="zrYIScCdd_bgvvqXHvuQ-118" value="&lt;b&gt;Slice REQ&lt;/b&gt;&lt;br&gt;- SST , SD&lt;br&gt;- External ID&lt;br&gt;- Profile ID&lt;br&gt;-&amp;nbsp; Other TMF 641 Mandatory Parameter" style="shape=note;whiteSpace=wrap;html=1;backgroundOutline=1;darkOpacity=0.05;dashed=1;dashPattern=1 4;labelBackgroundColor=#FFFFFF;fontSize=12;fontColor=#990099;strokeColor=#FFFFFF;fillColor=none;align=left;" vertex="1" parent="1">
          <mxGeometry x="164" y="134" width="146" height="100" as="geometry" />
        </mxCell>
        <mxCell id="zrYIScCdd_bgvvqXHvuQ-119" value="&lt;b&gt;Slice Provisioning RESPONSE&lt;/b&gt;&lt;br&gt;- Order ID&lt;br&gt;- Service profile info&lt;br&gt;- Service ID&lt;br&gt;- Other TMF 641 Mandatory Parameter" style="shape=note;whiteSpace=wrap;html=1;backgroundOutline=1;darkOpacity=0.05;dashed=1;dashPattern=1 4;labelBackgroundColor=#FFFFFF;fontSize=12;fontColor=#990099;strokeColor=#FFFFFF;fillColor=none;align=left;" vertex="1" parent="1">
          <mxGeometry x="589.5" y="100" width="240" height="110" as="geometry" />
        </mxCell>
        <mxCell id="zrYIScCdd_bgvvqXHvuQ-120" value="&lt;b&gt;Update Inventory with Slice information&lt;br&gt;- Slice ID&lt;br&gt;-&amp;nbsp; NSSAI&lt;br&gt;&lt;/b&gt;" style="shape=note;whiteSpace=wrap;html=1;backgroundOutline=1;darkOpacity=0.05;dashed=1;dashPattern=1 4;labelBackgroundColor=#FFFFFF;fontSize=12;fontColor=#990099;strokeColor=#FFFFFF;fillColor=none;align=left;" vertex="1" parent="1">
          <mxGeometry x="288" y="620" width="274" height="100" as="geometry" />
        </mxCell>
        <mxCell id="zrYIScCdd_bgvvqXHvuQ-121" value="4" style="ellipse;whiteSpace=wrap;html=1;labelBackgroundColor=#E6FFCC;fontSize=17;" vertex="1" parent="1">
          <mxGeometry x="150" y="334" width="30" height="30" as="geometry" />
        </mxCell>
        <mxCell id="zrYIScCdd_bgvvqXHvuQ-122" value="6" style="ellipse;whiteSpace=wrap;html=1;labelBackgroundColor=#E6FFCC;fontSize=17;" vertex="1" parent="1">
          <mxGeometry x="327.97" y="520" width="30" height="30" as="geometry" />
        </mxCell>
        <mxCell id="zrYIScCdd_bgvvqXHvuQ-123" value="3" style="ellipse;whiteSpace=wrap;html=1;labelBackgroundColor=#E6FFCC;fontSize=17;" vertex="1" parent="1">
          <mxGeometry x="320" y="250" width="30" height="30" as="geometry" />
        </mxCell>
        <mxCell id="zrYIScCdd_bgvvqXHvuQ-124" value="Order Slice" style="text;html=1;strokeColor=none;fillColor=none;align=center;verticalAlign=middle;whiteSpace=wrap;rounded=0;dashed=1;dashPattern=1 4;labelBackgroundColor=#E6FFCC;fontSize=15;fontColor=#990099;fontStyle=1" vertex="1" parent="1">
          <mxGeometry x="267.97" y="70" width="90" height="30" as="geometry" />
        </mxCell>
        <mxCell id="zrYIScCdd_bgvvqXHvuQ-125" value="Slice Prov&amp;nbsp; RESPONSE" style="text;html=1;strokeColor=none;fillColor=none;align=center;verticalAlign=middle;whiteSpace=wrap;rounded=0;dashed=1;dashPattern=1 4;labelBackgroundColor=#E6FFCC;fontSize=15;fontColor=#990099;fontStyle=1" vertex="1" parent="1">
          <mxGeometry x="589.5" y="80" width="124" height="30" as="geometry" />
        </mxCell>
        <mxCell id="zrYIScCdd_bgvvqXHvuQ-126" value="Slice &lt;br&gt;REQUEST" style="text;html=1;strokeColor=none;fillColor=none;align=center;verticalAlign=middle;whiteSpace=wrap;rounded=0;dashed=1;dashPattern=1 4;labelBackgroundColor=#E6FFCC;fontSize=15;fontColor=#990099;fontStyle=1" vertex="1" parent="1">
          <mxGeometry x="136" y="94" width="124" height="30" as="geometry" />
        </mxCell>
        <mxCell id="zrYIScCdd_bgvvqXHvuQ-127" value="7" style="ellipse;whiteSpace=wrap;html=1;labelBackgroundColor=#E6FFCC;fontSize=17;" vertex="1" parent="1">
          <mxGeometry x="425" y="590" width="30" height="30" as="geometry" />
        </mxCell>
        <mxCell id="zrYIScCdd_bgvvqXHvuQ-128" value="12" style="ellipse;whiteSpace=wrap;html=1;labelBackgroundColor=#E6FFCC;fontSize=17;" vertex="1" parent="1">
          <mxGeometry x="548" y="240" width="30" height="30" as="geometry" />
        </mxCell>
        <mxCell id="zrYIScCdd_bgvvqXHvuQ-129" value="" style="endArrow=none;dashed=1;html=1;rounded=0;fontSize=17;startArrow=none;" edge="1" parent="1">
          <mxGeometry width="50" height="50" relative="1" as="geometry">
            <mxPoint x="-8.499999999991815" y="532" as="sourcePoint" />
            <mxPoint x="718.5" y="530" as="targetPoint" />
          </mxGeometry>
        </mxCell>
        <mxCell id="zrYIScCdd_bgvvqXHvuQ-130" style="edgeStyle=orthogonalEdgeStyle;rounded=0;orthogonalLoop=1;jettySize=auto;html=1;exitX=0.5;exitY=1;exitDx=0;exitDy=0;fillColor=#a20025;strokeColor=#6F0000;endSize=12;startSize=12;" edge="1" parent="1">
          <mxGeometry relative="1" as="geometry">
            <mxPoint x="595" y="654.33" as="sourcePoint" />
            <mxPoint x="675" y="654.33" as="targetPoint" />
          </mxGeometry>
        </mxCell>
        <mxCell id="zrYIScCdd_bgvvqXHvuQ-131" value="&lt;font color=&quot;#000000&quot; style=&quot;font-size: 15px;&quot;&gt;&lt;b&gt;REQ&lt;/b&gt;&lt;/font&gt;" style="text;html=1;align=center;verticalAlign=middle;resizable=0;points=[];autosize=1;strokeColor=none;fillColor=none;fontSize=20;fontColor=#990099;" vertex="1" parent="1">
          <mxGeometry x="690" y="640" width="50" height="30" as="geometry" />
        </mxCell>
        <mxCell id="zrYIScCdd_bgvvqXHvuQ-132" value="" style="endArrow=classic;html=1;rounded=0;fontSize=20;fontColor=#990099;startSize=12;endSize=12;fillColor=#6a00ff;strokeColor=#3700CC;" edge="1" parent="1">
          <mxGeometry width="50" height="50" relative="1" as="geometry">
            <mxPoint x="595" y="684.33" as="sourcePoint" />
            <mxPoint x="675" y="684.33" as="targetPoint" />
          </mxGeometry>
        </mxCell>
        <mxCell id="zrYIScCdd_bgvvqXHvuQ-133" value="&lt;font color=&quot;#000000&quot; style=&quot;font-size: 15px;&quot;&gt;&lt;b&gt;RES&lt;/b&gt;&lt;/font&gt;" style="text;html=1;align=center;verticalAlign=middle;resizable=0;points=[];autosize=1;strokeColor=none;fillColor=none;fontSize=20;fontColor=#990099;" vertex="1" parent="1">
          <mxGeometry x="690" y="670" width="50" height="30" as="geometry" />
        </mxCell>
        <mxCell id="zrYIScCdd_bgvvqXHvuQ-134" style="edgeStyle=orthogonalEdgeStyle;rounded=0;orthogonalLoop=1;jettySize=auto;html=1;exitX=0.25;exitY=0;exitDx=0;exitDy=0;entryX=1;entryY=0.75;entryDx=0;entryDy=0;fillColor=#6a00ff;strokeColor=#3700CC;" edge="1" parent="1" source="zrYIScCdd_bgvvqXHvuQ-137" target="zrYIScCdd_bgvvqXHvuQ-102">
          <mxGeometry relative="1" as="geometry" />
        </mxCell>
        <mxCell id="zrYIScCdd_bgvvqXHvuQ-135" style="edgeStyle=orthogonalEdgeStyle;rounded=0;orthogonalLoop=1;jettySize=auto;html=1;exitX=0.75;exitY=1;exitDx=0;exitDy=0;entryX=0;entryY=0.25;entryDx=0;entryDy=0;fillColor=#6a00ff;strokeColor=#3700CC;" edge="1" parent="1" source="zrYIScCdd_bgvvqXHvuQ-137" target="zrYIScCdd_bgvvqXHvuQ-107">
          <mxGeometry relative="1" as="geometry" />
        </mxCell>
        <mxCell id="zrYIScCdd_bgvvqXHvuQ-136" style="edgeStyle=orthogonalEdgeStyle;rounded=0;orthogonalLoop=1;jettySize=auto;html=1;exitX=1;exitY=0.25;exitDx=0;exitDy=0;entryX=0.5;entryY=1;entryDx=0;entryDy=0;fillColor=#60a917;strokeColor=#2D7600;" edge="1" parent="1" source="zrYIScCdd_bgvvqXHvuQ-137" target="zrYIScCdd_bgvvqXHvuQ-144">
          <mxGeometry relative="1" as="geometry">
            <mxPoint x="780" y="310" as="targetPoint" />
          </mxGeometry>
        </mxCell>
        <mxCell id="zrYIScCdd_bgvvqXHvuQ-137" value="Kong Gateway" style="rounded=1;whiteSpace=wrap;html=1;fillColor=#f5f5f5;strokeColor=#666666;fontColor=#333333;fontStyle=1" vertex="1" parent="1">
          <mxGeometry x="300" y="349" width="120" height="60" as="geometry" />
        </mxCell>
        <mxCell id="zrYIScCdd_bgvvqXHvuQ-138" value="8" style="ellipse;whiteSpace=wrap;html=1;labelBackgroundColor=#E6FFCC;fontSize=17;" vertex="1" parent="1">
          <mxGeometry x="425" y="400" width="30" height="30" as="geometry" />
        </mxCell>
        <mxCell id="zrYIScCdd_bgvvqXHvuQ-139" value="" style="endArrow=none;dashed=1;html=1;rounded=0;fontSize=17;startArrow=none;" edge="1" parent="1">
          <mxGeometry width="50" height="50" relative="1" as="geometry">
            <mxPoint x="1.0000000000081855" y="326" as="sourcePoint" />
            <mxPoint x="720" y="326" as="targetPoint" />
          </mxGeometry>
        </mxCell>
        <mxCell id="zrYIScCdd_bgvvqXHvuQ-140" value="9" style="ellipse;whiteSpace=wrap;html=1;labelBackgroundColor=#E6FFCC;fontSize=17;" vertex="1" parent="1">
          <mxGeometry x="297.97" y="314" width="30" height="30" as="geometry" />
        </mxCell>
        <mxCell id="zrYIScCdd_bgvvqXHvuQ-141" value="10" style="ellipse;whiteSpace=wrap;html=1;labelBackgroundColor=#E6FFCC;fontSize=17;" vertex="1" parent="1">
          <mxGeometry x="222.00000000000003" y="334" width="30" height="30" as="geometry" />
        </mxCell>
        <mxCell id="zrYIScCdd_bgvvqXHvuQ-142" value="11" style="ellipse;whiteSpace=wrap;html=1;labelBackgroundColor=#E6FFCC;fontSize=17;" vertex="1" parent="1">
          <mxGeometry x="390" y="420" width="30" height="30" as="geometry" />
        </mxCell>
        <mxCell id="zrYIScCdd_bgvvqXHvuQ-143" style="edgeStyle=orthogonalEdgeStyle;rounded=0;orthogonalLoop=1;jettySize=auto;html=1;entryX=0.851;entryY=0.02;entryDx=0;entryDy=0;entryPerimeter=0;fillColor=#60a917;strokeColor=#2D7600;" edge="1" parent="1" source="zrYIScCdd_bgvvqXHvuQ-144" target="zrYIScCdd_bgvvqXHvuQ-137">
          <mxGeometry relative="1" as="geometry">
            <Array as="points">
              <mxPoint x="402" y="280" />
            </Array>
          </mxGeometry>
        </mxCell>
        <mxCell id="zrYIScCdd_bgvvqXHvuQ-144" value="Network Slicing UI&lt;font color=&quot;#ff3333&quot;&gt;*&lt;/font&gt;" style="rounded=1;whiteSpace=wrap;html=1;fillColor=#d0cee2;strokeColor=#56517e;fontStyle=1" vertex="1" parent="1">
          <mxGeometry x="726.5" y="250" width="120" height="50" as="geometry" />
        </mxCell>
        <mxCell id="zrYIScCdd_bgvvqXHvuQ-145" value="&lt;font style=&quot;font-size: 12px;&quot;&gt;Order Slice&lt;/font&gt;" style="text;html=1;strokeColor=none;fillColor=none;align=center;verticalAlign=middle;whiteSpace=wrap;rounded=0;dashed=1;dashPattern=1 4;labelBackgroundColor=#E6FFCC;fontSize=15;fontColor=#990099;fontStyle=1" vertex="1" parent="1">
          <mxGeometry x="640" y="240" width="90" height="30" as="geometry" />
        </mxCell>
        <mxCell id="zrYIScCdd_bgvvqXHvuQ-146" value="" style="endArrow=none;dashed=1;html=1;rounded=0;fontSize=17;startArrow=none;" edge="1" parent="1">
          <mxGeometry width="50" height="50" relative="1" as="geometry">
            <mxPoint x="8.185452315956354e-12" y="234" as="sourcePoint" />
            <mxPoint x="719" y="234" as="targetPoint" />
          </mxGeometry>
        </mxCell>
        <mxCell id="zrYIScCdd_bgvvqXHvuQ-147" value="&lt;font style=&quot;font-size: 12px;&quot;&gt;DMZ&amp;nbsp;&lt;/font&gt;" style="text;html=1;strokeColor=none;fillColor=none;align=center;verticalAlign=middle;whiteSpace=wrap;rounded=0;labelBackgroundColor=#E6FFCC;fontSize=17;fontColor=#990099;" vertex="1" parent="1">
          <mxGeometry x="-20" y="234" width="113" height="30" as="geometry" />
        </mxCell>
        <mxCell id="zrYIScCdd_bgvvqXHvuQ-148" value="1a" style="ellipse;whiteSpace=wrap;html=1;labelBackgroundColor=#E6FFCC;fontSize=17;" vertex="1" parent="1">
          <mxGeometry x="615.5" y="250" width="38" height="30" as="geometry" />
        </mxCell>
        <mxCell id="zrYIScCdd_bgvvqXHvuQ-149" value="1a" style="ellipse;whiteSpace=wrap;html=1;labelBackgroundColor=#E6FFCC;fontSize=17;" vertex="1" parent="1">
          <mxGeometry x="595" y="700" width="38" height="30" as="geometry" />
        </mxCell>
        <mxCell id="zrYIScCdd_bgvvqXHvuQ-150" value="&lt;span style=&quot;font-size: 12px;&quot;&gt;&lt;font color=&quot;#ff3333&quot;&gt;*&lt;/font&gt;Alternate method to order a slice through BSS inhouse portal&lt;/span&gt;" style="text;html=1;strokeColor=none;fillColor=none;align=center;verticalAlign=middle;whiteSpace=wrap;rounded=0;labelBackgroundColor=#E6FFCC;fontSize=17;fontColor=#990099;" vertex="1" parent="1">
          <mxGeometry x="753" y="210" width="184.5" height="30" as="geometry" />
        </mxCell>
        <mxCell id="zrYIScCdd_bgvvqXHvuQ-151" value="Slice Prov&amp;nbsp; RESPONSE" style="text;html=1;strokeColor=none;fillColor=none;align=center;verticalAlign=middle;whiteSpace=wrap;rounded=0;dashed=1;dashPattern=1 4;labelBackgroundColor=#E6FFCC;fontSize=15;fontColor=#990099;fontStyle=1" vertex="1" parent="1">
          <mxGeometry x="790" y="319" width="124" height="30" as="geometry" />
        </mxCell>
      </root>
    </mxGraphModel>
  </diagram>
</mxfile>
